<svg width="18" height="18" viewBox="0 0 18 18" fill="none" xmlns="http://www.w3.org/2000/svg">
<path d="M15.3822 7.155C15.3182 7.33449 15.2189 7.49932 15.09 7.63973C14.9612 7.78013 14.8055 7.8933 14.6322 7.9725C13.7097 8.38545 12.926 9.05588 12.3752 9.90338C11.8244 10.7509 11.53 11.7393 11.5272 12.75C11.5283 13.1026 11.5635 13.4542 11.6322 13.8C11.678 14.0113 11.681 14.2297 11.6411 14.4423C11.6011 14.6548 11.5191 14.8572 11.3997 15.0375C11.2987 15.1953 11.1658 15.3302 11.0095 15.4336C10.8532 15.5369 10.6769 15.6064 10.4922 15.6375C10.0916 15.7128 9.68483 15.7505 9.2772 15.75C8.37285 15.7505 7.47758 15.5691 6.64464 15.2168C5.8117 14.8646 5.05804 14.3485 4.42841 13.6993C3.7988 13.0501 3.30605 12.281 2.97946 11.4377C2.65286 10.5943 2.49906 9.6939 2.52719 8.79C2.5854 7.10459 3.26895 5.50121 4.44467 4.29222C5.62039 3.08323 7.20406 2.35521 8.8872 2.25H9.2697C10.5265 2.25031 11.7583 2.60152 12.8263 3.26405C13.8943 3.92658 14.7561 4.87414 15.3147 6C15.4866 6.35623 15.5109 6.76597 15.3822 7.14V7.155Z" stroke="#909090" stroke-width="1.5"/>
<path d="M6 12.0073L6.0075 11.999" stroke="#909090" stroke-width="1.5" stroke-linecap="round" stroke-linejoin="round"/>
<path d="M4.5 9.00735L4.5075 8.99902" stroke="#909090" stroke-width="1.5" stroke-linecap="round" stroke-linejoin="round"/>
<path d="M6 6.00736L6.0075 5.99902" stroke="#909090" stroke-width="1.5" stroke-linecap="round" stroke-linejoin="round"/>
<path d="M9 4.50736L9.0075 4.49902" stroke="#909090" stroke-width="1.5" stroke-linecap="round" stroke-linejoin="round"/>
<path d="M12 6.00736L12.0075 5.99902" stroke="#909090" stroke-width="1.5" stroke-linecap="round" stroke-linejoin="round"/>
</svg>
