<svg width="26" height="26" viewBox="0 0 26 26" fill="none" xmlns="http://www.w3.org/2000/svg">
<path data-figma-bg-blur-radius="60" d="M23.8334 9.60074C23.8334 11.2761 23.1901 12.8853 22.0413 14.0756C19.397 16.8166 16.8322 19.6747 14.0891 22.3163C13.4603 22.913 12.4629 22.8913 11.8612 22.2676L3.95826 14.0756C1.5695 11.5995 1.5695 7.602 3.95826 5.12587C6.37049 2.6254 10.3003 2.6254 12.7125 5.12587L12.9998 5.42362L13.2869 5.12604C14.4434 3.92654 16.0186 3.25 17.6641 3.25C19.3096 3.25 20.8846 3.92648 22.0413 5.12587C23.1902 6.31632 23.8334 7.92542 23.8334 9.60074Z" stroke="white" stroke-width="3" stroke-linejoin="round"/>
<defs>
<clipPath id="bgblur_0_1185_2093_clip_path" transform="translate(58.5833 57.5)"><path d="M23.8334 9.60074C23.8334 11.2761 23.1901 12.8853 22.0413 14.0756C19.397 16.8166 16.8322 19.6747 14.0891 22.3163C13.4603 22.913 12.4629 22.8913 11.8612 22.2676L3.95826 14.0756C1.5695 11.5995 1.5695 7.602 3.95826 5.12587C6.37049 2.6254 10.3003 2.6254 12.7125 5.12587L12.9998 5.42362L13.2869 5.12604C14.4434 3.92654 16.0186 3.25 17.6641 3.25C19.3096 3.25 20.8846 3.92648 22.0413 5.12587C23.1902 6.31632 23.8334 7.92542 23.8334 9.60074Z"/>
</clipPath></defs>
</svg>
