<svg width="116" height="24" viewBox="0 0 116 24" fill="none" xmlns="http://www.w3.org/2000/svg">
<rect width="6" height="22" rx="1" fill="black"/>
<rect x="8" width="6" height="22" rx="1" fill="black"/>
<rect x="15.2226" y="1.68457" width="6" height="22" rx="1" transform="rotate(-10 15.2226 1.68457)" fill="black"/>
<path d="M38.472 16.8028C37.7147 16.8028 37 16.6908 36.328 16.4668C35.6667 16.2321 35.112 15.8641 34.664 15.3628C34.216 14.8508 33.9227 14.1841 33.784 13.3628H35.816C35.944 13.7788 36.1467 14.1041 36.424 14.3388C36.712 14.5735 37.048 14.7388 37.432 14.8348C37.816 14.9201 38.2053 14.9628 38.6 14.9628C38.952 14.9628 39.2827 14.9201 39.592 14.8348C39.912 14.7388 40.1733 14.5841 40.376 14.3708C40.5893 14.1575 40.696 13.8748 40.696 13.5228C40.696 13.2561 40.6373 13.0428 40.52 12.8828C40.4133 12.7121 40.2587 12.5735 40.056 12.4668C39.864 12.3495 39.6293 12.2588 39.352 12.1948C39.0853 12.1095 38.7973 12.0348 38.488 11.9708C38.1787 11.9068 37.8747 11.8375 37.576 11.7628C37.2773 11.6881 36.9947 11.5921 36.728 11.4748C36.3867 11.3575 36.056 11.2241 35.736 11.0748C35.4267 10.9148 35.1547 10.7228 34.92 10.4988C34.696 10.2748 34.5147 9.99747 34.376 9.6668C34.2373 9.33614 34.168 8.94147 34.168 8.4828C34.168 7.96014 34.2533 7.51214 34.424 7.1388C34.6053 6.7548 34.84 6.44014 35.128 6.1948C35.4267 5.94947 35.7573 5.75747 36.12 5.6188C36.4933 5.48014 36.8773 5.3788 37.272 5.3148C37.6773 5.2508 38.0613 5.2188 38.424 5.2188C39.128 5.2188 39.768 5.33614 40.344 5.5708C40.9307 5.80547 41.4107 6.16814 41.784 6.6588C42.1573 7.14947 42.3707 7.7788 42.424 8.5468H40.488C40.4453 8.18414 40.3173 7.89614 40.104 7.6828C39.8907 7.4588 39.624 7.2988 39.304 7.2028C38.984 7.09614 38.6373 7.0428 38.264 7.0428C38.008 7.0428 37.752 7.06414 37.496 7.1068C37.2507 7.14947 37.0267 7.22414 36.824 7.3308C36.632 7.43747 36.472 7.58147 36.344 7.7628C36.2267 7.93347 36.168 8.15214 36.168 8.4188C36.168 8.65347 36.2267 8.86147 36.344 9.0428C36.4613 9.21347 36.6213 9.35747 36.824 9.4748C37.0373 9.59214 37.288 9.6988 37.576 9.7948C37.9493 9.94414 38.3547 10.0561 38.792 10.1308C39.24 10.2055 39.6613 10.3068 40.056 10.4348C40.44 10.5415 40.792 10.6748 41.112 10.8348C41.4427 10.9841 41.7253 11.1708 41.96 11.3948C42.1947 11.6081 42.376 11.8748 42.504 12.1948C42.6427 12.5041 42.712 12.8775 42.712 13.3148C42.712 13.9548 42.5947 14.4988 42.36 14.9468C42.136 15.3841 41.8213 15.7415 41.416 16.0188C41.0213 16.2961 40.568 16.4988 40.056 16.6268C39.5547 16.7441 39.0267 16.8028 38.472 16.8028ZM44.4596 16.6748V5.3628H46.4116V9.3308C46.6356 9.0428 46.897 8.80814 47.1956 8.6268C47.4943 8.44547 47.809 8.31747 48.1396 8.2428C48.4703 8.15747 48.785 8.1148 49.0836 8.1148C49.8836 8.1148 50.513 8.2908 50.9716 8.6428C51.4303 8.9948 51.7503 9.46414 51.9316 10.0508C52.1236 10.6375 52.2196 11.2988 52.2196 12.0348V16.6748H50.2676V12.3708C50.2676 12.0828 50.2463 11.7895 50.2036 11.4908C50.161 11.1921 50.0756 10.9255 49.9476 10.6908C49.8303 10.4455 49.649 10.2481 49.4036 10.0988C49.169 9.94947 48.8543 9.8748 48.4596 9.8748C48.0863 9.8748 47.7663 9.9548 47.4996 10.1148C47.233 10.2641 47.0196 10.4721 46.8596 10.7388C46.7103 11.0055 46.5983 11.2988 46.5236 11.6188C46.449 11.9388 46.4116 12.2588 46.4116 12.5788V16.6748H44.4596ZM56.7414 16.7868C56.3467 16.7868 55.9734 16.7335 55.6214 16.6268C55.2694 16.5201 54.9547 16.3655 54.6774 16.1628C54.4 15.9495 54.176 15.6881 54.0054 15.3788C53.8454 15.0588 53.7654 14.6855 53.7654 14.2588C53.7654 13.7148 53.872 13.2721 54.0854 12.9308C54.2987 12.5788 54.5867 12.3121 54.9494 12.1308C55.3227 11.9495 55.744 11.8268 56.2134 11.7628C56.6827 11.6881 57.1734 11.6508 57.6854 11.6508H59.3334C59.3334 11.2775 59.2747 10.9575 59.1574 10.6908C59.04 10.4135 58.8534 10.1948 58.5974 10.0348C58.352 9.8748 58.032 9.7948 57.6374 9.7948C57.3814 9.7948 57.1414 9.8268 56.9174 9.8908C56.704 9.94414 56.5174 10.0348 56.3574 10.1628C56.208 10.2801 56.1014 10.4348 56.0374 10.6268H54.0374C54.112 10.1895 54.2614 9.81614 54.4854 9.5068C54.72 9.1868 55.0027 8.92547 55.3334 8.7228C55.6747 8.52014 56.048 8.3708 56.4534 8.2748C56.8587 8.16814 57.2694 8.1148 57.6854 8.1148C58.912 8.1148 59.8027 8.4668 60.3574 9.1708C60.9227 9.8748 61.2054 10.8615 61.2054 12.1308V16.6748H59.4774L59.4294 15.5868C59.184 15.9495 58.8907 16.2161 58.5494 16.3868C58.208 16.5575 57.8774 16.6641 57.5574 16.7068C57.2374 16.7601 56.9654 16.7868 56.7414 16.7868ZM57.1254 15.2028C57.552 15.2028 57.9307 15.1228 58.2614 14.9628C58.592 14.8028 58.8534 14.5788 59.0454 14.2908C59.248 14.0028 59.3494 13.6721 59.3494 13.2988V13.0268H57.8134C57.5574 13.0268 57.3014 13.0375 57.0454 13.0588C56.8 13.0695 56.576 13.1121 56.3734 13.1868C56.1707 13.2508 56.0054 13.3521 55.8774 13.4908C55.76 13.6295 55.7014 13.8268 55.7014 14.0828C55.7014 14.3388 55.7654 14.5468 55.8934 14.7068C56.032 14.8668 56.208 14.9895 56.4214 15.0748C56.6454 15.1601 56.88 15.2028 57.1254 15.2028ZM63.069 16.6748V8.2428H64.845L64.957 9.3468C65.1703 9.0268 65.4103 8.78147 65.677 8.6108C65.9543 8.42947 66.2477 8.30147 66.557 8.2268C66.877 8.15214 67.197 8.1148 67.517 8.1148C67.6343 8.1148 67.741 8.1148 67.837 8.1148C67.9437 8.1148 68.029 8.12014 68.093 8.1308V9.9868H67.581C67.0263 9.9868 66.557 10.0935 66.173 10.3068C65.789 10.5201 65.501 10.8241 65.309 11.2188C65.117 11.6135 65.021 12.0988 65.021 12.6748V16.6748H63.069ZM72.8606 16.7868C71.986 16.7868 71.2393 16.6055 70.6206 16.2428C70.0126 15.8801 69.5486 15.3788 69.2286 14.7388C68.9193 14.0881 68.7646 13.3361 68.7646 12.4828C68.7646 11.6295 68.9246 10.8775 69.2446 10.2268C69.5753 9.56547 70.0446 9.04814 70.6526 8.6748C71.2713 8.30147 72.0126 8.1148 72.8766 8.1148C73.5166 8.1148 74.0766 8.23214 74.5566 8.4668C75.0366 8.6908 75.4366 9.00014 75.7566 9.3948C76.0873 9.78947 76.3326 10.2375 76.4926 10.7388C76.6526 11.2401 76.7273 11.7681 76.7166 12.3228C76.706 12.4508 76.6953 12.5788 76.6846 12.7068C76.674 12.8241 76.658 12.9521 76.6366 13.0908H70.7166C70.7486 13.4641 70.8446 13.8055 71.0046 14.1148C71.1753 14.4241 71.41 14.6695 71.7086 14.8508C72.018 15.0321 72.402 15.1228 72.8606 15.1228C73.1273 15.1228 73.3833 15.0908 73.6286 15.0268C73.874 14.9521 74.0873 14.8455 74.2686 14.7068C74.4606 14.5681 74.5886 14.3921 74.6526 14.1788H76.6046C76.466 14.7868 76.21 15.2828 75.8366 15.6668C75.4633 16.0508 75.0153 16.3335 74.4926 16.5148C73.9806 16.6961 73.4366 16.7868 72.8606 16.7868ZM70.7486 11.6348H74.8126C74.8126 11.2828 74.7326 10.9628 74.5726 10.6748C74.4126 10.3868 74.1833 10.1628 73.8846 10.0028C73.5966 9.83214 73.2446 9.7468 72.8286 9.7468C72.3806 9.7468 72.0073 9.83747 71.7086 10.0188C71.41 10.2001 71.1806 10.4348 71.0206 10.7228C70.8606 11.0108 70.77 11.3148 70.7486 11.6348ZM78.5761 16.6748V5.3628H83.2161C83.7388 5.3628 84.2188 5.4108 84.6561 5.5068C85.1041 5.59214 85.4881 5.7468 85.8081 5.9708C86.1388 6.1948 86.3948 6.49347 86.5761 6.8668C86.7575 7.24014 86.8481 7.70414 86.8481 8.2588C86.8481 8.7708 86.7308 9.24014 86.4961 9.6668C86.2615 10.0828 85.9148 10.3975 85.4561 10.6108C86.0748 10.7708 86.5495 11.0801 86.8801 11.5388C87.2108 11.9868 87.3761 12.5735 87.3761 13.2988C87.3761 13.9495 87.2535 14.4935 87.0081 14.9308C86.7735 15.3575 86.4428 15.6988 86.0161 15.9548C85.6001 16.2108 85.1148 16.3975 84.5601 16.5148C84.0055 16.6215 83.4135 16.6748 82.7841 16.6748H78.5761ZM80.5761 14.8508H82.9601C83.2588 14.8508 83.5521 14.8295 83.8401 14.7868C84.1281 14.7441 84.3895 14.6695 84.6241 14.5628C84.8588 14.4561 85.0401 14.3015 85.1681 14.0988C85.3068 13.8855 85.3761 13.6135 85.3761 13.2828C85.3761 12.9841 85.3228 12.7388 85.2161 12.5468C85.1095 12.3548 84.9601 12.2055 84.7681 12.0988C84.5868 11.9815 84.3681 11.9015 84.1121 11.8588C83.8561 11.8055 83.5895 11.7788 83.3121 11.7788H80.5761V14.8508ZM80.5761 10.0988H82.6881C83.0188 10.0988 83.3175 10.0668 83.5841 10.0028C83.8508 9.9388 84.0801 9.8428 84.2721 9.7148C84.4641 9.57614 84.6135 9.4108 84.7201 9.2188C84.8268 9.01614 84.8801 8.7708 84.8801 8.4828C84.8801 8.10947 84.7948 7.83214 84.6241 7.6508C84.4535 7.4588 84.2188 7.33614 83.9201 7.2828C83.6321 7.2188 83.3068 7.1868 82.9441 7.1868H80.5761V10.0988ZM92.8313 16.7868C91.9673 16.7868 91.2206 16.6108 90.5913 16.2588C89.9726 15.9068 89.4926 15.4055 89.1513 14.7548C88.8206 14.1041 88.6553 13.3415 88.6553 12.4668C88.6553 11.5815 88.8259 10.8188 89.1673 10.1788C89.5086 9.52814 89.9886 9.02147 90.6073 8.6588C91.2259 8.29614 91.9673 8.1148 92.8313 8.1148C93.6846 8.1148 94.4206 8.29614 95.0393 8.6588C95.6579 9.02147 96.1326 9.53347 96.4633 10.1948C96.7939 10.8455 96.9593 11.6135 96.9593 12.4988C96.9593 13.3628 96.7939 14.1201 96.4633 14.7708C96.1433 15.4108 95.6739 15.9068 95.0553 16.2588C94.4366 16.6108 93.6953 16.7868 92.8313 16.7868ZM92.8153 15.0108C93.3486 15.0108 93.7753 14.8935 94.0953 14.6588C94.4259 14.4241 94.6659 14.1148 94.8153 13.7308C94.9646 13.3468 95.0393 12.9308 95.0393 12.4828C95.0393 12.0348 94.9646 11.6135 94.8153 11.2188C94.6659 10.8241 94.4259 10.5095 94.0953 10.2748C93.7753 10.0295 93.3486 9.9068 92.8153 9.9068C92.2819 9.9068 91.8499 10.0295 91.5193 10.2748C91.1886 10.5095 90.9486 10.8241 90.7993 11.2188C90.6499 11.6028 90.5753 12.0241 90.5753 12.4828C90.5753 12.9308 90.6499 13.3521 90.7993 13.7468C90.9593 14.1308 91.1993 14.4401 91.5193 14.6748C91.8499 14.8988 92.2819 15.0108 92.8153 15.0108ZM102.378 16.7868C101.514 16.7868 100.767 16.6108 100.138 16.2588C99.5195 15.9068 99.0395 15.4055 98.6981 14.7548C98.3675 14.1041 98.2021 13.3415 98.2021 12.4668C98.2021 11.5815 98.3728 10.8188 98.7141 10.1788C99.0555 9.52814 99.5355 9.02147 100.154 8.6588C100.773 8.29614 101.514 8.1148 102.378 8.1148C103.231 8.1148 103.967 8.29614 104.586 8.6588C105.205 9.02147 105.679 9.53347 106.01 10.1948C106.341 10.8455 106.506 11.6135 106.506 12.4988C106.506 13.3628 106.341 14.1201 106.01 14.7708C105.69 15.4108 105.221 15.9068 104.602 16.2588C103.983 16.6108 103.242 16.7868 102.378 16.7868ZM102.362 15.0108C102.895 15.0108 103.322 14.8935 103.642 14.6588C103.973 14.4241 104.213 14.1148 104.362 13.7308C104.511 13.3468 104.586 12.9308 104.586 12.4828C104.586 12.0348 104.511 11.6135 104.362 11.2188C104.213 10.8241 103.973 10.5095 103.642 10.2748C103.322 10.0295 102.895 9.9068 102.362 9.9068C101.829 9.9068 101.397 10.0295 101.066 10.2748C100.735 10.5095 100.495 10.8241 100.346 11.2188C100.197 11.6028 100.122 12.0241 100.122 12.4828C100.122 12.9308 100.197 13.3521 100.346 13.7468C100.506 14.1308 100.746 14.4401 101.066 14.6748C101.397 14.8988 101.829 15.0108 102.362 15.0108ZM108.069 16.6748V5.3628H110.021V11.6188H111.237L113.461 8.2428H115.653L112.917 12.2588L115.877 16.6748H113.605L111.349 13.3308H110.021V16.6748H108.069Z" fill="black"/>
</svg>
