<svg width="24" height="24" viewBox="0 0 24 24" fill="none" xmlns="http://www.w3.org/2000/svg">
<path d="M21 13V8C21 6.89543 20.1046 6 19 6H5C3.89543 6 3 6.89543 3 8V14C3 15.1046 3.89543 16 5 16H12" stroke="#2A7FFF" stroke-width="2" stroke-linecap="round" stroke-linejoin="round"/>
<path fill-rule="evenodd" clip-rule="evenodd" d="M20.8787 16.9174C21.3725 17.2211 21.3421 17.9604 20.8335 18.0181L18.2669 18.309L17.1157 20.6213C16.8876 21.0795 16.1825 20.8552 16.0659 20.2873L14.8106 14.1713C14.7121 13.6913 15.1435 13.3892 15.5608 13.646L20.8787 16.9174Z" stroke="#2A7FFF" stroke-width="2"/>
<path d="M12 11.0101L12.01 10.999" stroke="#2A7FFF" stroke-width="2" stroke-linecap="round" stroke-linejoin="round"/>
<path d="M16 11.0101L16.01 10.999" stroke="#2A7FFF" stroke-width="2" stroke-linecap="round" stroke-linejoin="round"/>
<path d="M8 11.0101L8.01 10.999" stroke="#2A7FFF" stroke-width="2" stroke-linecap="round" stroke-linejoin="round"/>
</svg>
